<?xml version="1.0" standalone="no"?><!DOCTYPE svg PUBLIC "-//W3C//DTD SVG 1.1//EN" "http://www.w3.org/Graphics/SVG/1.1/DTD/svg11.dtd"><svg t="1711110839307" class="icon" viewBox="0 0 1024 1024" version="1.1" xmlns="http://www.w3.org/2000/svg" p-id="10108" xmlns:xlink="http://www.w3.org/1999/xlink" width="200" height="200"><path d="M196.56 0c-212.096 0-212.096 1024 0 1024 160.896 0 789.952-343.744 789.952-512S350.16 0 196.56 0zM818.32 555.904c-109.696 109.696-373.056 256-533.952 321.856a54.144 54.144 0 0 1-73.152-43.904 1589.12 1589.12 0 0 1 0-643.648 58.752 58.752 0 0 1 73.152-43.904A2253.184 2253.184 0 0 1 818.32 468.16a54.848 54.848 0 0 1 0 87.744z" p-id="10109" fill="#707070"></path></svg>